<!-- Generated by IcoMoon.io -->
<svg version="1.1" xmlns="http://www.w3.org/2000/svg" width="34" height="32" viewBox="0 0 34 32">
<title>Feature-4</title>
<path fill="#212121" d="M1.109 20.358c-0.010 0.137-0.060 0.244-0.152 0.322s-0.21 0.118-0.359 0.118c-0.163 0-0.291-0.055-0.384-0.164s-0.139-0.26-0.139-0.451v-0.078c0-0.122 0.021-0.229 0.065-0.322s0.104-0.164 0.184-0.214c0.080-0.050 0.173-0.075 0.279-0.075 0.146 0 0.264 0.039 0.354 0.118s0.141 0.189 0.155 0.33h-0.261c-0.006-0.082-0.029-0.141-0.069-0.178s-0.098-0.056-0.179-0.056c-0.087 0-0.152 0.031-0.196 0.094s-0.065 0.159-0.066 0.29v0.096c0 0.137 0.021 0.237 0.062 0.301s0.108 0.095 0.197 0.095c0.081 0 0.141-0.018 0.18-0.055s0.063-0.094 0.069-0.172h0.261zM2.377 20.175c0 0.125-0.022 0.234-0.066 0.329s-0.107 0.167-0.19 0.218c-0.082 0.051-0.176 0.077-0.282 0.077-0.105 0-0.199-0.025-0.281-0.076s-0.146-0.123-0.192-0.216c-0.045-0.094-0.068-0.202-0.069-0.324v-0.063c0-0.125 0.022-0.235 0.067-0.329s0.109-0.168 0.191-0.219c0.083-0.051 0.177-0.077 0.282-0.077s0.2 0.026 0.282 0.077c0.083 0.050 0.146 0.123 0.191 0.219s0.068 0.204 0.068 0.329v0.057zM2.112 20.118c0-0.133-0.024-0.234-0.071-0.303s-0.116-0.104-0.204-0.104c-0.088 0-0.155 0.034-0.203 0.103s-0.072 0.168-0.072 0.3v0.062c0 0.13 0.024 0.23 0.071 0.302s0.116 0.107 0.206 0.107c0.088 0 0.155-0.034 0.202-0.103s0.071-0.17 0.071-0.302v-0.062zM2.621 20.781v-1.269h0.444c0.154 0 0.271 0.030 0.35 0.089s0.119 0.145 0.119 0.259c0 0.062-0.016 0.117-0.048 0.165s-0.076 0.082-0.133 0.104c0.065 0.016 0.116 0.049 0.153 0.098s0.057 0.11 0.057 0.181c0 0.122-0.039 0.214-0.117 0.277s-0.189 0.095-0.333 0.096h-0.493zM2.882 20.228v0.343h0.224c0.062 0 0.11-0.015 0.144-0.044s0.052-0.070 0.052-0.122c0-0.116-0.060-0.175-0.18-0.177h-0.24zM2.882 20.044h0.193c0.132-0.002 0.198-0.055 0.198-0.158 0-0.058-0.017-0.099-0.051-0.124s-0.086-0.038-0.158-0.038h-0.183v0.32zM4.075 20.334v0.447h-0.261v-1.269h0.495c0.095 0 0.179 0.017 0.251 0.052s0.128 0.085 0.167 0.149c0.039 0.064 0.058 0.137 0.058 0.219 0 0.124-0.043 0.222-0.128 0.294s-0.202 0.107-0.353 0.107h-0.229zM4.075 20.122h0.234c0.069 0 0.122-0.016 0.158-0.049s0.055-0.079 0.055-0.139c0-0.062-0.018-0.112-0.055-0.151s-0.087-0.058-0.152-0.059h-0.24v0.398zM5.783 20.231h-0.502v0.34h0.589v0.21h-0.851v-1.269h0.849v0.212h-0.587v0.302h0.502v0.205zM6.419 19.512l0.326 0.92 0.324-0.92h0.343v1.269h-0.262v-0.347l0.026-0.599-0.343 0.946h-0.18l-0.342-0.945 0.026 0.598v0.347h-0.261v-1.269h0.342zM8.458 20.231h-0.502v0.34h0.589v0.21h-0.851v-1.269h0.849v0.212h-0.587v0.302h0.502v0.205zM9.785 20.781h-0.261v-0.544h-0.51v0.544h-0.261v-1.269h0.261v0.514h0.51v-0.514h0.261v1.269zM11.1 20.781h-0.261v-0.544h-0.51v0.544h-0.261v-1.269h0.261v0.514h0.51v-0.514h0.261v1.269zM11.649 19.97h0.204c0.149 0 0.268 0.036 0.355 0.109s0.132 0.169 0.132 0.292c0 0.123-0.044 0.222-0.131 0.297s-0.202 0.112-0.346 0.113h-0.477v-1.269h0.263v0.458zM12.709 20.781h-0.261v-1.269h0.261v1.269zM11.649 20.18v0.39h0.208c0.067 0 0.12-0.018 0.159-0.055s0.060-0.086 0.060-0.147c0-0.058-0.019-0.103-0.058-0.136s-0.090-0.051-0.156-0.052h-0.214zM13.756 20.231h-0.502v0.34h0.589v0.21h-0.851v-1.269h0.849v0.212h-0.587v0.302h0.502v0.205zM15.451 19.724h-0.389v1.057h-0.261v-1.057h-0.383v-0.212h1.034v0.212zM16.418 20.231h-0.502v0.34h0.589v0.21h-0.851v-1.269h0.849v0.212h-0.587v0.302h0.502v0.205zM17.166 19.95l0.238-0.438h0.301l-0.369 0.629 0.379 0.64h-0.304l-0.244-0.444-0.244 0.444h-0.304l0.379-0.64-0.369-0.629h0.301l0.238 0.438zM18.933 20.781h-0.261v-0.544h-0.51v0.544h-0.261v-1.269h0.261v0.514h0.51v-0.514h0.261v1.269zM20.258 20.175c0 0.125-0.022 0.234-0.066 0.329s-0.107 0.167-0.19 0.218c-0.082 0.051-0.176 0.077-0.282 0.077-0.105 0-0.199-0.025-0.282-0.076s-0.146-0.123-0.192-0.216c-0.045-0.094-0.068-0.202-0.069-0.324v-0.063c0-0.125 0.022-0.235 0.067-0.329s0.109-0.168 0.191-0.219c0.082-0.051 0.177-0.077 0.282-0.077s0.2 0.026 0.282 0.077c0.083 0.050 0.146 0.123 0.191 0.219s0.068 0.204 0.068 0.329v0.057zM19.994 20.118c0-0.133-0.024-0.234-0.072-0.303s-0.116-0.104-0.204-0.104c-0.088 0-0.155 0.034-0.203 0.103s-0.072 0.168-0.072 0.3v0.062c0 0.13 0.024 0.23 0.072 0.302s0.116 0.107 0.206 0.107c0.088 0 0.155-0.034 0.202-0.103s0.071-0.17 0.072-0.302v-0.062zM21.506 19.512v1.269h-0.262v-1.057h-0.338l-0.021 0.448c-0.009 0.151-0.028 0.27-0.058 0.357s-0.073 0.15-0.13 0.191c-0.057 0.040-0.135 0.060-0.234 0.061h-0.068v-0.21l0.044-0.004c0.066-0.009 0.112-0.046 0.14-0.113s0.047-0.187 0.054-0.359l0.022-0.582h0.851zM22.83 20.175c0 0.125-0.022 0.234-0.066 0.329s-0.107 0.167-0.19 0.218c-0.082 0.051-0.176 0.077-0.282 0.077-0.105 0-0.199-0.025-0.282-0.076s-0.146-0.123-0.192-0.216c-0.045-0.094-0.068-0.202-0.069-0.324v-0.063c0-0.125 0.022-0.235 0.067-0.329s0.109-0.168 0.191-0.219c0.082-0.051 0.177-0.077 0.282-0.077s0.2 0.026 0.282 0.077c0.083 0.050 0.146 0.123 0.191 0.219s0.068 0.204 0.068 0.329v0.057zM22.565 20.118c0-0.133-0.024-0.234-0.072-0.303s-0.116-0.104-0.204-0.104c-0.088 0-0.155 0.034-0.203 0.103s-0.072 0.168-0.072 0.3v0.062c0 0.13 0.024 0.23 0.072 0.302s0.116 0.107 0.206 0.107c0.088 0 0.155-0.034 0.202-0.103s0.071-0.17 0.072-0.302v-0.062zM23.906 19.724h-0.569v1.057h-0.261v-1.269h0.83v0.212zM24.883 19.512h0.262v1.269h-0.262v-0.843l-0.508 0.843h-0.261v-1.269h0.261v0.845l0.508-0.845zM26.187 19.512h0.262v1.269h-0.262v-0.843l-0.508 0.843h-0.261v-1.269h0.261v0.845l0.508-0.845z"></path>
<path fill="#757575" d="M0.798 23.677c0-0.067-0.025-0.121-0.074-0.16s-0.118-0.060-0.207-0.060c-0.074 0-0.137 0.021-0.187 0.062s-0.075 0.091-0.075 0.152h-0.167c0-0.067 0.018-0.128 0.055-0.181s0.089-0.095 0.155-0.125c0.066-0.030 0.139-0.045 0.22-0.045 0.142 0 0.252 0.032 0.33 0.096s0.118 0.152 0.118 0.265c0 0.059-0.018 0.112-0.054 0.16s-0.086 0.086-0.151 0.114c0.149 0.050 0.224 0.149 0.224 0.297 0 0.114-0.042 0.204-0.127 0.271s-0.198 0.1-0.34 0.1c-0.084 0-0.161-0.015-0.23-0.044s-0.122-0.073-0.16-0.128-0.058-0.121-0.058-0.197h0.167c0 0.067 0.026 0.123 0.079 0.167s0.12 0.066 0.201 0.066c0.091 0 0.164-0.021 0.218-0.064s0.082-0.098 0.082-0.168c0-0.149-0.092-0.224-0.276-0.227h-0.157v-0.138h0.156c0.085-0.002 0.149-0.021 0.193-0.058s0.065-0.088 0.065-0.155zM2.006 24.606h-0.161v-0.403h-0.433v0.403h-0.162v-0.943h0.162v0.409h0.433v-0.409h0.161v0.943zM2.901 24.606c-0.009-0.019-0.017-0.052-0.023-0.099-0.075 0.078-0.164 0.117-0.268 0.117-0.093 0-0.169-0.026-0.229-0.079s-0.089-0.12-0.089-0.2c0-0.098 0.037-0.174 0.112-0.228s0.18-0.082 0.316-0.082h0.157v-0.074c0-0.056-0.017-0.101-0.051-0.134s-0.083-0.051-0.149-0.051c-0.058 0-0.106 0.015-0.145 0.044s-0.058 0.064-0.058 0.105h-0.162c0-0.047 0.017-0.092 0.050-0.136s0.079-0.079 0.136-0.105c0.058-0.026 0.121-0.038 0.189-0.038 0.109 0 0.194 0.027 0.255 0.082s0.094 0.129 0.096 0.224v0.434c0 0.087 0.011 0.155 0.033 0.207v0.014h-0.169zM2.634 24.483c0.051 0 0.098-0.013 0.144-0.039s0.078-0.060 0.099-0.102v-0.194h-0.126c-0.198 0-0.296 0.058-0.296 0.173 0 0.051 0.017 0.090 0.051 0.119s0.077 0.043 0.13 0.043zM4.055 24.606h-0.162v-0.342c-0.071 0.019-0.143 0.028-0.218 0.028-0.118 0-0.208-0.030-0.27-0.091s-0.093-0.146-0.094-0.258v-0.282h0.161v0.287c0.003 0.141 0.071 0.211 0.203 0.211 0.074 0 0.147-0.009 0.218-0.028v-0.469h0.162v0.943zM4.978 23.663h0.161v0.943h-0.161v-0.688l-0.435 0.688h-0.161v-0.943h0.161v0.688l0.435-0.688zM5.994 24.392l0.321-0.729h0.201v0.943h-0.161v-0.686l-0.305 0.686h-0.112l-0.311-0.701v0.701h-0.161v-0.943h0.209l0.319 0.729zM6.787 24.125c0-0.092 0.018-0.175 0.054-0.249s0.087-0.131 0.152-0.171c0.065-0.040 0.139-0.060 0.222-0.060 0.128 0 0.232 0.044 0.311 0.133s0.119 0.207 0.119 0.355v0.011c0 0.092-0.018 0.174-0.053 0.247s-0.085 0.129-0.151 0.17c-0.065 0.041-0.14 0.061-0.225 0.061-0.128 0-0.232-0.044-0.311-0.133s-0.119-0.207-0.119-0.353v-0.011zM6.949 24.145c0 0.105 0.024 0.189 0.072 0.252s0.114 0.095 0.195 0.095c0.082 0 0.147-0.032 0.195-0.096s0.072-0.155 0.072-0.27c0-0.103-0.025-0.187-0.074-0.251s-0.114-0.097-0.195-0.097c-0.080 0-0.144 0.032-0.193 0.095s-0.073 0.154-0.073 0.272zM8.279 24.491c0.057 0 0.108-0.017 0.151-0.052s0.067-0.078 0.071-0.131h0.153c-0.003 0.054-0.021 0.105-0.056 0.154s-0.080 0.088-0.138 0.117c-0.057 0.029-0.117 0.044-0.181 0.044-0.128 0-0.231-0.043-0.307-0.128s-0.113-0.203-0.113-0.352v-0.027c0-0.092 0.017-0.173 0.051-0.245s0.082-0.127 0.145-0.166c0.063-0.040 0.138-0.059 0.224-0.059 0.106 0 0.193 0.032 0.263 0.095s0.108 0.146 0.112 0.247h-0.153c-0.005-0.061-0.028-0.111-0.070-0.15s-0.092-0.059-0.153-0.059c-0.082 0-0.146 0.030-0.191 0.089s-0.067 0.144-0.067 0.255v0.030c0 0.109 0.022 0.192 0.067 0.251s0.109 0.088 0.192 0.088zM9.59 23.793h-0.316v0.812h-0.161v-0.812h-0.31v-0.131h0.788v0.131zM9.976 23.988h0.245c0.107 0.001 0.191 0.029 0.254 0.084s0.093 0.129 0.093 0.222c0 0.094-0.032 0.17-0.096 0.227s-0.15 0.085-0.258 0.085h-0.399v-0.943h0.161v0.325zM9.976 24.119v0.355h0.24c0.060 0 0.107-0.015 0.14-0.046s0.050-0.074 0.050-0.128c0-0.052-0.016-0.095-0.049-0.128s-0.077-0.051-0.135-0.052h-0.246zM11.65 23.778c-0.058 0-0.107 0.018-0.15 0.055s-0.063 0.080-0.063 0.13h-0.153c0-0.054 0.017-0.106 0.051-0.155s0.080-0.089 0.137-0.118c0.057-0.030 0.116-0.044 0.178-0.044 0.123 0 0.222 0.044 0.297 0.133s0.114 0.204 0.114 0.347v0.027c0 0.088-0.017 0.169-0.052 0.242s-0.083 0.129-0.146 0.169c-0.062 0.040-0.133 0.059-0.214 0.059-0.105 0-0.192-0.032-0.261-0.098s-0.105-0.146-0.105-0.243h0.153c0 0.059 0.021 0.109 0.062 0.15s0.091 0.060 0.151 0.060c0.069 0 0.126-0.027 0.171-0.080s0.071-0.127 0.078-0.22h-0.354v-0.132h0.352c-0.008-0.085-0.034-0.153-0.078-0.204s-0.1-0.078-0.169-0.078zM12.964 23.793h-0.316v0.812h-0.161v-0.812h-0.31v-0.131h0.788v0.131zM13.784 23.663h0.161v0.943h-0.161v-0.688l-0.435 0.688h-0.161v-0.943h0.161v0.688l0.435-0.688zM14.574 24.007l0.209-0.344h0.188l-0.309 0.466 0.318 0.477h-0.187l-0.218-0.353-0.218 0.353h-0.187l0.318-0.477-0.309-0.466h0.187l0.207 0.344zM16.465 24.606h-0.161v-0.81h-0.434v0.81h-0.162v-0.943h0.757v0.943zM17.574 24.145c0 0.143-0.033 0.259-0.098 0.347s-0.155 0.132-0.267 0.132c-0.114 0-0.204-0.036-0.27-0.109v0.454h-0.161v-1.305h0.147l0.008 0.105c0.066-0.081 0.157-0.122 0.274-0.122 0.113 0 0.203 0.043 0.268 0.128s0.099 0.204 0.099 0.356v0.015zM17.412 24.126c0-0.106-0.023-0.19-0.068-0.252s-0.107-0.092-0.187-0.092c-0.098 0-0.171 0.043-0.22 0.13v0.451c0.048 0.086 0.122 0.129 0.221 0.129 0.077 0 0.139-0.030 0.184-0.091s0.069-0.153 0.069-0.274zM17.79 24.125c0-0.092 0.018-0.175 0.054-0.249s0.087-0.131 0.152-0.171c0.065-0.040 0.139-0.060 0.222-0.060 0.128 0 0.232 0.044 0.311 0.133s0.119 0.207 0.119 0.355v0.011c0 0.092-0.018 0.174-0.053 0.247s-0.085 0.129-0.151 0.17c-0.065 0.041-0.14 0.061-0.225 0.061-0.128 0-0.232-0.044-0.311-0.133s-0.119-0.207-0.119-0.353v-0.011zM17.952 24.145c0 0.105 0.024 0.189 0.072 0.252s0.114 0.095 0.195 0.095c0.082 0 0.147-0.032 0.195-0.096s0.072-0.155 0.072-0.27c0-0.103-0.025-0.187-0.074-0.251s-0.114-0.097-0.195-0.097c-0.080 0-0.144 0.032-0.193 0.095s-0.073 0.154-0.073 0.272zM19.318 23.717c0.119 0 0.213 0.040 0.284 0.119s0.107 0.183 0.107 0.313v0.015c0 0.089-0.017 0.169-0.051 0.239s-0.084 0.124-0.148 0.163c-0.064 0.038-0.138 0.058-0.221 0.058-0.127 0-0.229-0.042-0.306-0.126s-0.116-0.198-0.116-0.341v-0.079c0-0.198 0.037-0.356 0.11-0.472s0.182-0.188 0.326-0.213c0.081-0.015 0.136-0.032 0.165-0.053s0.043-0.050 0.043-0.086h0.132c0 0.073-0.017 0.129-0.050 0.17s-0.085 0.069-0.157 0.086l-0.12 0.027c-0.096 0.023-0.168 0.061-0.216 0.115s-0.079 0.125-0.093 0.214c0.085-0.099 0.189-0.148 0.312-0.148zM19.287 23.849c-0.079 0-0.142 0.027-0.188 0.080s-0.070 0.126-0.070 0.221v0.014c0 0.101 0.023 0.181 0.070 0.241s0.11 0.088 0.19 0.088c0.080 0 0.144-0.030 0.19-0.089s0.070-0.146 0.070-0.26c0-0.089-0.024-0.16-0.071-0.214s-0.11-0.081-0.191-0.081zM20.718 23.663v0.943h-0.162v-0.81h-0.321l-0.019 0.353c-0.010 0.162-0.038 0.278-0.082 0.348s-0.113 0.106-0.208 0.109h-0.064v-0.142l0.046-0.004c0.052-0.006 0.090-0.036 0.112-0.091s0.037-0.156 0.044-0.303l0.017-0.404h0.637zM21.421 24.623c-0.128 0-0.232-0.042-0.312-0.126s-0.12-0.197-0.12-0.337v-0.030c0-0.093 0.018-0.177 0.053-0.25s0.086-0.131 0.15-0.172c0.064-0.042 0.134-0.063 0.209-0.063 0.123 0 0.218 0.040 0.286 0.121s0.102 0.196 0.102 0.347v0.067h-0.639c0.002 0.093 0.029 0.168 0.081 0.226s0.119 0.085 0.199 0.085c0.057 0 0.105-0.012 0.145-0.035s0.074-0.054 0.104-0.092l0.098 0.077c-0.079 0.121-0.197 0.182-0.356 0.182zM21.401 23.778c-0.065 0-0.12 0.024-0.164 0.071s-0.072 0.113-0.082 0.199h0.472v-0.012c-0.005-0.082-0.027-0.145-0.066-0.19s-0.093-0.068-0.16-0.068zM22.573 24.392l0.321-0.729h0.201v0.943h-0.161v-0.686l-0.305 0.686h-0.112l-0.311-0.701v0.701h-0.161v-0.943h0.209l0.319 0.729zM24.675 24.606h-0.161v-0.403h-0.433v0.403h-0.162v-0.943h0.162v0.409h0.433v-0.409h0.161v0.943zM25.57 24.606c-0.009-0.019-0.017-0.052-0.023-0.099-0.075 0.078-0.164 0.117-0.268 0.117-0.093 0-0.169-0.026-0.229-0.079s-0.089-0.12-0.089-0.2c0-0.098 0.037-0.174 0.112-0.228s0.18-0.082 0.316-0.082h0.157v-0.074c0-0.056-0.017-0.101-0.050-0.134s-0.083-0.051-0.149-0.051c-0.058 0-0.106 0.015-0.145 0.044s-0.058 0.064-0.058 0.105h-0.162c0-0.047 0.017-0.092 0.050-0.136s0.079-0.079 0.136-0.105c0.058-0.026 0.12-0.038 0.189-0.038 0.109 0 0.194 0.027 0.255 0.082s0.094 0.129 0.096 0.224v0.434c0 0.087 0.011 0.155 0.033 0.207v0.014h-0.169zM25.303 24.483c0.050 0 0.098-0.013 0.144-0.039s0.078-0.060 0.098-0.102v-0.194h-0.126c-0.198 0-0.296 0.058-0.296 0.173 0 0.051 0.017 0.090 0.050 0.119s0.077 0.043 0.13 0.043zM26.391 24.491c0.058 0 0.108-0.017 0.151-0.052s0.067-0.078 0.071-0.131h0.152c-0.003 0.054-0.021 0.105-0.056 0.154s-0.080 0.088-0.138 0.117c-0.057 0.029-0.117 0.044-0.181 0.044-0.128 0-0.231-0.043-0.307-0.128s-0.113-0.203-0.113-0.352v-0.027c0-0.092 0.017-0.173 0.051-0.245s0.082-0.127 0.145-0.166c0.063-0.040 0.138-0.059 0.224-0.059 0.106 0 0.194 0.032 0.263 0.095s0.108 0.146 0.112 0.247h-0.152c-0.005-0.061-0.028-0.111-0.070-0.15s-0.092-0.059-0.153-0.059c-0.082 0-0.145 0.030-0.191 0.089s-0.067 0.144-0.067 0.255v0.030c0 0.109 0.022 0.192 0.067 0.251s0.109 0.088 0.192 0.088zM27.701 23.793h-0.316v0.812h-0.161v-0.812h-0.31v-0.131h0.788v0.131zM27.832 24.125c0-0.092 0.018-0.175 0.054-0.249s0.087-0.131 0.152-0.171c0.065-0.040 0.139-0.060 0.222-0.060 0.128 0 0.232 0.044 0.311 0.133s0.119 0.207 0.119 0.355v0.011c0 0.092-0.018 0.174-0.053 0.247s-0.085 0.129-0.151 0.17c-0.065 0.041-0.14 0.061-0.225 0.061-0.128 0-0.232-0.044-0.311-0.133s-0.119-0.207-0.119-0.353v-0.011zM27.994 24.145c0 0.105 0.024 0.189 0.072 0.252s0.114 0.095 0.195 0.095c0.082 0 0.147-0.032 0.195-0.096s0.072-0.155 0.072-0.27c0-0.103-0.025-0.187-0.074-0.251s-0.114-0.097-0.195-0.097c-0.080 0-0.144 0.032-0.192 0.095s-0.073 0.154-0.073 0.272zM29.705 23.663v0.943h-0.162v-0.81h-0.321l-0.019 0.353c-0.010 0.162-0.038 0.278-0.082 0.348s-0.113 0.106-0.208 0.109h-0.064v-0.142l0.046-0.004c0.052-0.006 0.090-0.036 0.112-0.091s0.037-0.156 0.043-0.303l0.017-0.404h0.637zM30.194 23.988h0.245c0.107 0.001 0.192 0.029 0.254 0.084s0.093 0.129 0.093 0.222c0 0.094-0.032 0.17-0.096 0.227s-0.15 0.085-0.258 0.085h-0.399v-0.943h0.161v0.325zM30.194 24.119v0.355h0.24c0.060 0 0.107-0.015 0.14-0.046s0.050-0.074 0.050-0.128c0-0.052-0.016-0.095-0.049-0.128s-0.077-0.051-0.135-0.052h-0.246zM31.334 24.204h-0.118v0.402h-0.162v-0.943h0.162v0.399h0.105l0.317-0.399h0.195l-0.373 0.453 0.404 0.49h-0.205l-0.327-0.402zM31.996 24.125c0-0.092 0.018-0.175 0.054-0.249s0.087-0.131 0.152-0.171c0.065-0.040 0.139-0.060 0.222-0.060 0.128 0 0.232 0.044 0.311 0.133s0.119 0.207 0.119 0.355v0.011c0 0.092-0.018 0.174-0.053 0.247s-0.085 0.129-0.151 0.17c-0.065 0.041-0.14 0.061-0.225 0.061-0.128 0-0.232-0.044-0.311-0.133s-0.119-0.207-0.119-0.353v-0.011zM32.158 24.145c0 0.105 0.024 0.189 0.072 0.252s0.114 0.095 0.195 0.095c0.082 0 0.147-0.032 0.195-0.096s0.072-0.155 0.072-0.27c0-0.103-0.025-0.187-0.074-0.251s-0.114-0.097-0.195-0.097c-0.080 0-0.144 0.032-0.193 0.095s-0.073 0.154-0.073 0.272zM0.079 27.185c0-0.092 0.018-0.175 0.054-0.249s0.087-0.131 0.152-0.171c0.065-0.040 0.139-0.060 0.222-0.060 0.128 0 0.232 0.044 0.311 0.133s0.119 0.207 0.119 0.355v0.011c0 0.092-0.018 0.174-0.053 0.247s-0.085 0.129-0.151 0.17c-0.065 0.041-0.14 0.061-0.225 0.061-0.128 0-0.232-0.044-0.311-0.133s-0.119-0.207-0.119-0.353v-0.011zM0.241 27.204c0 0.105 0.024 0.189 0.072 0.252s0.114 0.095 0.195 0.095c0.082 0 0.147-0.032 0.195-0.096s0.072-0.155 0.072-0.27c0-0.103-0.025-0.187-0.074-0.251s-0.114-0.097-0.195-0.097c-0.080 0-0.144 0.032-0.193 0.095s-0.073 0.154-0.073 0.272zM1.906 27.665h-0.162v-0.342c-0.071 0.019-0.143 0.028-0.218 0.028-0.118 0-0.208-0.030-0.27-0.091s-0.093-0.146-0.094-0.258v-0.282h0.161v0.287c0.003 0.141 0.071 0.211 0.203 0.211 0.074 0 0.147-0.009 0.218-0.028v-0.469h0.162v0.943zM2.609 27.683c-0.128 0-0.232-0.042-0.312-0.126s-0.12-0.197-0.12-0.337v-0.030c0-0.093 0.018-0.177 0.053-0.25s0.086-0.131 0.15-0.172c0.064-0.042 0.134-0.063 0.209-0.063 0.123 0 0.218 0.040 0.286 0.121s0.102 0.196 0.102 0.347v0.067h-0.639c0.002 0.093 0.029 0.168 0.081 0.226s0.119 0.085 0.199 0.085c0.057 0 0.105-0.012 0.145-0.035s0.074-0.054 0.104-0.092l0.098 0.077c-0.079 0.121-0.198 0.182-0.356 0.182zM2.589 26.837c-0.065 0-0.12 0.024-0.164 0.071s-0.071 0.113-0.082 0.199h0.472v-0.012c-0.005-0.082-0.027-0.145-0.066-0.19s-0.093-0.068-0.16-0.068zM3.233 27.665v-0.943h0.368c0.126 0 0.222 0.022 0.288 0.066s0.101 0.108 0.101 0.193c0 0.044-0.013 0.083-0.039 0.118s-0.065 0.062-0.116 0.080c0.057 0.013 0.103 0.040 0.137 0.079s0.052 0.085 0.052 0.139c0 0.087-0.032 0.153-0.096 0.199s-0.153 0.069-0.269 0.069h-0.426zM3.394 27.251v0.284h0.267c0.067 0 0.118-0.012 0.151-0.037s0.051-0.060 0.051-0.106c0-0.094-0.069-0.141-0.207-0.141h-0.261zM3.394 27.122h0.208c0.151 0 0.227-0.044 0.227-0.132s-0.071-0.134-0.214-0.137h-0.22v0.269zM4.901 26.722h0.161v0.943h-0.161v-0.688l-0.435 0.688h-0.161v-0.943h0.161v0.688l0.435-0.688zM5.367 27.534l0.056-0.069c0.063-0.081 0.098-0.203 0.107-0.366l0.015-0.376h0.607v0.811h0.121v0.409h-0.161v-0.277h-0.658v0.277h-0.161l0.001-0.409h0.073zM5.558 27.534h0.433v-0.662h-0.29l-0.010 0.225c-0.010 0.188-0.054 0.334-0.133 0.438zM7.276 27.665h-0.161v-0.403h-0.433v0.403h-0.162v-0.943h0.162v0.409h0.433v-0.409h0.161v0.943zM8.171 27.665c-0.009-0.019-0.017-0.052-0.023-0.099-0.075 0.078-0.164 0.117-0.268 0.117-0.093 0-0.169-0.026-0.229-0.079s-0.089-0.12-0.089-0.2c0-0.098 0.037-0.174 0.112-0.228s0.18-0.082 0.316-0.082h0.157v-0.074c0-0.056-0.017-0.101-0.051-0.134s-0.083-0.051-0.149-0.051c-0.058 0-0.106 0.015-0.145 0.044s-0.058 0.064-0.058 0.105h-0.162c0-0.047 0.017-0.092 0.050-0.136s0.079-0.079 0.136-0.105c0.058-0.026 0.121-0.038 0.189-0.038 0.109 0 0.194 0.027 0.255 0.082s0.094 0.129 0.096 0.224v0.434c0 0.087 0.011 0.155 0.033 0.207v0.014h-0.169zM7.904 27.542c0.051 0 0.098-0.013 0.144-0.039s0.078-0.060 0.098-0.102v-0.194h-0.126c-0.198 0-0.296 0.058-0.296 0.173 0 0.051 0.017 0.090 0.051 0.119s0.077 0.043 0.13 0.043zM8.608 27.918l-0.091-0.063c0.055-0.076 0.083-0.155 0.085-0.235v-0.146h0.158v0.126c0 0.059-0.015 0.117-0.044 0.176s-0.065 0.106-0.108 0.141zM10.226 27.665h-0.162v-0.342c-0.071 0.019-0.143 0.028-0.218 0.028-0.118 0-0.208-0.030-0.27-0.091s-0.093-0.146-0.094-0.258v-0.282h0.161v0.287c0.003 0.141 0.071 0.211 0.203 0.211 0.074 0 0.147-0.009 0.218-0.028v-0.469h0.162v0.943zM11.239 26.853h-0.316v0.812h-0.161v-0.812h-0.31v-0.131h0.788v0.131zM11.37 27.185c0-0.092 0.018-0.175 0.054-0.249s0.087-0.131 0.152-0.171c0.065-0.040 0.139-0.060 0.222-0.060 0.128 0 0.232 0.044 0.311 0.133s0.119 0.207 0.119 0.355v0.011c0 0.092-0.018 0.174-0.053 0.247s-0.085 0.129-0.151 0.17c-0.065 0.041-0.14 0.061-0.225 0.061-0.128 0-0.232-0.044-0.311-0.133s-0.118-0.207-0.118-0.353v-0.011zM11.532 27.204c0 0.105 0.024 0.189 0.072 0.252s0.114 0.095 0.195 0.095c0.082 0 0.147-0.032 0.195-0.096s0.072-0.155 0.072-0.27c0-0.103-0.025-0.187-0.074-0.251s-0.114-0.097-0.195-0.097c-0.080 0-0.144 0.032-0.193 0.095s-0.073 0.154-0.073 0.272zM13.777 27.204c0 0.143-0.033 0.259-0.099 0.347s-0.155 0.132-0.267 0.132c-0.114 0-0.204-0.036-0.27-0.109v0.454h-0.161v-1.305h0.147l0.008 0.105c0.066-0.081 0.157-0.122 0.274-0.122 0.113 0 0.203 0.043 0.268 0.128s0.099 0.204 0.099 0.356v0.015zM13.616 27.186c0-0.106-0.023-0.19-0.068-0.252s-0.107-0.092-0.187-0.092c-0.098 0-0.171 0.043-0.22 0.13v0.451c0.048 0.086 0.122 0.129 0.221 0.129 0.077 0 0.138-0.030 0.184-0.091s0.069-0.153 0.069-0.274zM14.428 27.683c-0.128 0-0.232-0.042-0.312-0.126s-0.12-0.197-0.12-0.337v-0.030c0-0.093 0.018-0.177 0.053-0.25s0.086-0.131 0.15-0.172c0.065-0.042 0.134-0.063 0.209-0.063 0.123 0 0.218 0.040 0.286 0.121s0.102 0.196 0.102 0.347v0.067h-0.639c0.002 0.093 0.029 0.168 0.081 0.226s0.119 0.085 0.199 0.085c0.057 0 0.105-0.012 0.145-0.035s0.074-0.054 0.104-0.092l0.098 0.077c-0.079 0.121-0.197 0.182-0.356 0.182zM14.408 26.837c-0.065 0-0.12 0.024-0.164 0.071s-0.072 0.113-0.082 0.199h0.472v-0.012c-0.005-0.082-0.027-0.145-0.066-0.19s-0.093-0.068-0.16-0.068zM15.618 27.665c-0.009-0.019-0.017-0.052-0.023-0.099-0.075 0.078-0.164 0.117-0.268 0.117-0.093 0-0.169-0.026-0.229-0.079s-0.089-0.12-0.089-0.2c0-0.098 0.037-0.174 0.112-0.228s0.18-0.082 0.315-0.082h0.157v-0.074c0-0.056-0.017-0.101-0.051-0.134s-0.083-0.051-0.149-0.051c-0.057 0-0.106 0.015-0.145 0.044s-0.058 0.064-0.058 0.105h-0.162c0-0.047 0.017-0.092 0.050-0.136s0.079-0.079 0.136-0.105c0.057-0.026 0.121-0.038 0.189-0.038 0.109 0 0.194 0.027 0.255 0.082s0.093 0.129 0.096 0.224v0.434c0 0.087 0.011 0.155 0.033 0.207v0.014h-0.169zM15.351 27.542c0.051 0 0.099-0.013 0.144-0.039s0.078-0.060 0.099-0.102v-0.194h-0.126c-0.198 0-0.296 0.058-0.296 0.173 0 0.051 0.017 0.090 0.051 0.119s0.077 0.043 0.13 0.043zM16.834 26.722v0.943h-0.162v-0.81h-0.321l-0.019 0.353c-0.010 0.162-0.038 0.278-0.082 0.348s-0.113 0.106-0.208 0.109h-0.065v-0.142l0.046-0.004c0.052-0.006 0.090-0.036 0.112-0.091s0.037-0.156 0.044-0.303l0.017-0.404h0.637zM17.756 26.722h0.161v0.943h-0.161v-0.688l-0.435 0.688h-0.161v-0.943h0.161v0.688l0.435-0.688zM18.748 26.98c0-0.044-0.017-0.079-0.050-0.105s-0.080-0.039-0.139-0.039c-0.057 0-0.105 0.015-0.143 0.044s-0.057 0.064-0.057 0.105h-0.16c0-0.082 0.034-0.149 0.103-0.201s0.154-0.078 0.257-0.078c0.11 0 0.196 0.024 0.258 0.071s0.092 0.114 0.092 0.202c0 0.042-0.013 0.081-0.038 0.117s-0.062 0.064-0.109 0.085c0.11 0.037 0.165 0.11 0.165 0.22 0 0.087-0.034 0.155-0.1 0.206s-0.156 0.076-0.267 0.076c-0.109 0-0.198-0.026-0.269-0.079s-0.105-0.126-0.105-0.216h0.16c0 0.046 0.020 0.085 0.061 0.119s0.092 0.049 0.153 0.049c0.062 0 0.111-0.014 0.149-0.043s0.057-0.065 0.057-0.111c0-0.053-0.016-0.091-0.048-0.113s-0.080-0.035-0.147-0.035h-0.161v-0.136h0.175c0.11-0.003 0.165-0.048 0.165-0.136zM19.772 27.665c-0.009-0.019-0.017-0.052-0.023-0.099-0.075 0.078-0.164 0.117-0.268 0.117-0.093 0-0.169-0.026-0.229-0.079s-0.089-0.12-0.089-0.2c0-0.098 0.037-0.174 0.112-0.228s0.18-0.082 0.316-0.082h0.157v-0.074c0-0.056-0.017-0.101-0.050-0.134s-0.083-0.051-0.149-0.051c-0.058 0-0.106 0.015-0.145 0.044s-0.058 0.064-0.058 0.105h-0.162c0-0.047 0.016-0.092 0.050-0.136s0.079-0.079 0.136-0.105c0.058-0.026 0.12-0.038 0.189-0.038 0.109 0 0.194 0.027 0.255 0.082s0.094 0.129 0.096 0.224v0.434c0 0.087 0.011 0.155 0.033 0.207v0.014h-0.169zM19.504 27.542c0.050 0 0.098-0.013 0.144-0.039s0.078-0.060 0.098-0.102v-0.194h-0.126c-0.197 0-0.296 0.058-0.296 0.173 0 0.051 0.017 0.090 0.050 0.119s0.077 0.043 0.13 0.043zM20.228 26.722h0.162v0.811h0.434v-0.811h0.161v0.811h0.112l-0.016 0.411h-0.145v-0.28h-0.709v-0.943zM21.936 26.722h0.161v0.943h-0.161v-0.688l-0.435 0.688h-0.161v-0.943h0.161v0.688l0.435-0.688zM23.13 26.722v0.943h-0.162v-0.367h-0.243l-0.222 0.367h-0.174l0.237-0.391c-0.060-0.022-0.107-0.056-0.139-0.102s-0.048-0.101-0.048-0.162c0-0.086 0.032-0.155 0.097-0.207s0.151-0.080 0.259-0.080h0.397zM22.54 27.012c0 0.046 0.016 0.083 0.047 0.112s0.073 0.042 0.125 0.043h0.256v-0.313h-0.232c-0.060 0-0.107 0.015-0.143 0.044s-0.053 0.067-0.053 0.114zM24.71 27.665h-0.161v-0.81h-0.434v0.81h-0.162v-0.943h0.757v0.943zM25.795 26.722v0.943h-0.162v-0.81h-0.321l-0.019 0.353c-0.010 0.162-0.038 0.278-0.082 0.348s-0.113 0.106-0.208 0.109h-0.064v-0.142l0.046-0.004c0.052-0.006 0.090-0.036 0.112-0.091s0.037-0.156 0.044-0.303l0.017-0.404h0.637zM26.69 27.665c-0.009-0.019-0.017-0.052-0.023-0.099-0.075 0.078-0.164 0.117-0.268 0.117-0.093 0-0.169-0.026-0.229-0.079s-0.089-0.12-0.089-0.2c0-0.098 0.037-0.174 0.112-0.228s0.18-0.082 0.316-0.082h0.157v-0.074c0-0.056-0.017-0.101-0.051-0.134s-0.083-0.051-0.149-0.051c-0.058 0-0.106 0.015-0.145 0.044s-0.058 0.064-0.058 0.105h-0.162c0-0.047 0.017-0.092 0.050-0.136s0.079-0.079 0.136-0.105c0.058-0.026 0.121-0.038 0.189-0.038 0.109 0 0.194 0.027 0.255 0.082s0.094 0.129 0.096 0.224v0.434c0 0.087 0.011 0.155 0.033 0.207v0.014h-0.169zM26.422 27.542c0.051 0 0.099-0.013 0.144-0.039s0.078-0.060 0.099-0.102v-0.194h-0.126c-0.197 0-0.296 0.058-0.296 0.173 0 0.051 0.017 0.090 0.051 0.119s0.077 0.043 0.13 0.043zM27.903 27.665h-0.161v-0.403h-0.433v0.403h-0.162v-0.943h0.162v0.409h0.433v-0.409h0.161v0.943zM28.173 27.185c0-0.092 0.018-0.175 0.054-0.249s0.087-0.131 0.152-0.171c0.065-0.040 0.139-0.060 0.222-0.060 0.128 0 0.232 0.044 0.311 0.133s0.119 0.207 0.119 0.355v0.011c0 0.092-0.018 0.174-0.053 0.247s-0.085 0.129-0.151 0.17c-0.065 0.041-0.14 0.061-0.225 0.061-0.128 0-0.232-0.044-0.311-0.133s-0.118-0.207-0.118-0.353v-0.011zM28.335 27.204c0 0.105 0.024 0.189 0.072 0.252s0.114 0.095 0.195 0.095c0.082 0 0.147-0.032 0.195-0.096s0.072-0.155 0.072-0.27c0-0.103-0.025-0.187-0.074-0.251s-0.114-0.097-0.195-0.097c-0.080 0-0.144 0.032-0.193 0.095s-0.073 0.154-0.073 0.272zM29.302 27.665v-0.943h0.368c0.125 0 0.222 0.022 0.288 0.066s0.101 0.108 0.101 0.193c0 0.044-0.013 0.083-0.039 0.118s-0.065 0.062-0.116 0.080c0.057 0.013 0.102 0.040 0.137 0.079s0.052 0.085 0.052 0.139c0 0.087-0.032 0.153-0.096 0.199s-0.153 0.069-0.269 0.069h-0.426zM29.463 27.251v0.284h0.267c0.067 0 0.118-0.012 0.151-0.037s0.051-0.060 0.051-0.106c0-0.094-0.069-0.141-0.207-0.141h-0.261zM29.463 27.122h0.208c0.151 0 0.227-0.044 0.227-0.132s-0.072-0.134-0.214-0.137h-0.22v0.269zM30.537 27.047h0.245c0.107 0.001 0.191 0.029 0.254 0.084s0.093 0.129 0.093 0.222c0 0.094-0.032 0.17-0.096 0.227s-0.15 0.085-0.258 0.085h-0.399v-0.943h0.161v0.325zM31.465 27.665h-0.162v-0.943h0.162v0.943zM30.537 27.179v0.355h0.24c0.060 0 0.107-0.015 0.14-0.046s0.050-0.074 0.050-0.128c0-0.052-0.016-0.095-0.049-0.128s-0.077-0.051-0.135-0.052h-0.246zM32.116 27.067l0.209-0.344h0.188l-0.309 0.466 0.318 0.477h-0.187l-0.218-0.353-0.218 0.353h-0.187l0.318-0.477-0.309-0.466h0.187l0.207 0.344zM0.641 30.040c0-0.044-0.017-0.079-0.051-0.105s-0.080-0.039-0.139-0.039c-0.057 0-0.105 0.015-0.143 0.044s-0.057 0.064-0.057 0.105h-0.16c0-0.082 0.034-0.149 0.103-0.201s0.154-0.078 0.257-0.078c0.11 0 0.196 0.024 0.258 0.071s0.092 0.114 0.092 0.202c0 0.042-0.013 0.081-0.038 0.117s-0.062 0.064-0.109 0.085c0.11 0.037 0.165 0.11 0.165 0.22 0 0.087-0.033 0.155-0.1 0.206s-0.156 0.076-0.268 0.076c-0.109 0-0.198-0.026-0.269-0.079s-0.105-0.126-0.105-0.216h0.16c0 0.046 0.020 0.085 0.061 0.119s0.092 0.049 0.153 0.049c0.062 0 0.111-0.014 0.149-0.043s0.057-0.065 0.057-0.111c0-0.053-0.016-0.091-0.048-0.113s-0.080-0.035-0.147-0.035h-0.161v-0.136h0.175c0.11-0.003 0.165-0.048 0.165-0.136zM1.664 30.725c-0.009-0.019-0.017-0.052-0.023-0.099-0.075 0.078-0.164 0.117-0.268 0.117-0.093 0-0.169-0.026-0.229-0.079s-0.089-0.12-0.089-0.2c0-0.098 0.037-0.174 0.112-0.228s0.18-0.082 0.316-0.082h0.157v-0.074c0-0.056-0.017-0.101-0.051-0.134s-0.083-0.051-0.149-0.051c-0.058 0-0.106 0.015-0.145 0.044s-0.058 0.064-0.058 0.105h-0.162c0-0.047 0.017-0.092 0.050-0.136s0.079-0.079 0.136-0.105c0.058-0.026 0.121-0.038 0.189-0.038 0.109 0 0.194 0.027 0.255 0.082s0.094 0.129 0.096 0.224v0.434c0 0.087 0.011 0.155 0.033 0.207v0.014h-0.169zM1.397 30.602c0.051 0 0.098-0.013 0.144-0.039s0.078-0.060 0.099-0.102v-0.194h-0.126c-0.198 0-0.296 0.058-0.296 0.173 0 0.051 0.017 0.090 0.051 0.119s0.077 0.043 0.13 0.043zM2.099 30.594l0.056-0.069c0.063-0.081 0.099-0.203 0.107-0.366l0.015-0.376h0.607v0.811h0.121v0.409h-0.161v-0.277h-0.658v0.277h-0.161l0.001-0.409h0.073zM2.289 30.594h0.433v-0.662h-0.29l-0.010 0.225c-0.010 0.188-0.054 0.334-0.133 0.438zM3.819 30.725c-0.009-0.019-0.017-0.052-0.023-0.099-0.075 0.078-0.164 0.117-0.268 0.117-0.093 0-0.169-0.026-0.229-0.079s-0.089-0.12-0.089-0.2c0-0.098 0.037-0.174 0.112-0.228s0.18-0.082 0.316-0.082h0.157v-0.074c0-0.056-0.017-0.101-0.051-0.134s-0.083-0.051-0.149-0.051c-0.058 0-0.106 0.015-0.145 0.044s-0.058 0.064-0.058 0.105h-0.162c0-0.047 0.017-0.092 0.050-0.136s0.079-0.079 0.136-0.105c0.058-0.026 0.121-0.038 0.189-0.038 0.109 0 0.194 0.027 0.255 0.082s0.094 0.129 0.096 0.224v0.434c0 0.087 0.011 0.155 0.033 0.207v0.014h-0.169zM3.552 30.602c0.051 0 0.099-0.013 0.144-0.039s0.078-0.060 0.098-0.102v-0.194h-0.126c-0.198 0-0.296 0.058-0.296 0.173 0 0.051 0.017 0.090 0.051 0.119s0.077 0.043 0.13 0.043zM5.032 30.725h-0.161v-0.403h-0.433v0.403h-0.162v-0.943h0.162v0.409h0.433v-0.409h0.161v0.943zM5.955 29.782h0.161v0.943h-0.161v-0.688l-0.435 0.688h-0.161v-0.943h0.161v0.688l0.435-0.688zM7.039 29.782h0.161v0.943h-0.161v-0.688l-0.435 0.688h-0.161v-0.943h0.161v0.688l0.435-0.688zM7.082 29.439c0 0.070-0.024 0.127-0.072 0.17s-0.11 0.064-0.188 0.064-0.141-0.021-0.189-0.064c-0.048-0.043-0.072-0.099-0.072-0.169h0.132c0 0.041 0.011 0.073 0.033 0.096s0.054 0.034 0.097 0.034c0.041 0 0.072-0.011 0.095-0.034s0.035-0.055 0.035-0.096h0.131zM7.516 30.641c0-0.028 0.008-0.051 0.024-0.070s0.042-0.028 0.075-0.028 0.058 0.009 0.075 0.028c0.017 0.019 0.026 0.042 0.026 0.070 0 0.027-0.009 0.049-0.026 0.067s-0.042 0.027-0.075 0.027-0.058-0.009-0.075-0.027c-0.016-0.018-0.024-0.040-0.024-0.067z"></path>
<path fill="#f5f4fa" d="M0.51 0h33.402c0.282 0 0.51 0.228 0.51 0.51v14.279c0 0.282-0.228 0.51-0.51 0.51h-33.402c-0.282 0-0.51-0.228-0.51-0.51v-14.279c0-0.282 0.228-0.51 0.51-0.51z"></path>
<path fill="#2196f3" d="M21.666 4.449c-0.017-0.054-0.064-0.093-0.12-0.101l-0.533-0.077-0.238-0.483c-0.050-0.102-0.217-0.102-0.267 0l-0.238 0.483-0.533 0.077c-0.056 0.008-0.102 0.047-0.12 0.101s-0.003 0.113 0.038 0.152l0.386 0.376-0.091 0.531c-0.009 0.056 0.013 0.112 0.059 0.145s0.107 0.038 0.157 0.011l0.477-0.251 0.477 0.251c0.022 0.011 0.046 0.017 0.069 0.017 0.031 0 0.062-0.010 0.087-0.028 0.046-0.033 0.069-0.090 0.059-0.145l-0.091-0.531 0.386-0.376c0.040-0.040 0.055-0.099 0.038-0.152zM20.979 4.819c-0.035 0.034-0.051 0.083-0.043 0.132l0.053 0.311-0.279-0.147c-0.022-0.011-0.046-0.017-0.069-0.017s-0.047 0.006-0.069 0.017l-0.279 0.147 0.053-0.311c0.008-0.048-0.008-0.097-0.043-0.132l-0.226-0.22 0.312-0.045c0.048-0.007 0.090-0.037 0.112-0.081l0.139-0.283 0.139 0.283c0.022 0.044 0.064 0.074 0.112 0.081l0.312 0.045-0.226 0.22z"></path>
<path fill="#2196f3" d="M20.037 8.911h-0.297v0.297h0.297v-0.297z"></path>
<path fill="#2196f3" d="M20.037 9.506h-0.297v0.297h0.297v-0.297z"></path>
<path fill="#2196f3" d="M20.335 9.208h-0.297v0.297h0.297v-0.297z"></path>
<path fill="#2196f3" d="M19.74 9.208h-0.298v0.297h0.298v-0.297z"></path>
<path fill="#2196f3" d="M18.996 10.547h-0.297v0.297h0.297v-0.297z"></path>
<path fill="#2196f3" d="M18.996 11.142h-0.297v0.297h0.297v-0.297z"></path>
<path fill="#2196f3" d="M19.294 10.844h-0.298v0.297h0.298v-0.297z"></path>
<path fill="#2196f3" d="M18.699 10.844h-0.298v0.297h0.298v-0.297z"></path>
<path fill="#2196f3" d="M17.211 9.952h-0.297v0.297h0.297v-0.297z"></path>
<path fill="#2196f3" d="M17.211 10.547h-0.297v0.297h0.297v-0.297z"></path>
<path fill="#2196f3" d="M17.509 10.249h-0.297v0.297h0.297v-0.297z"></path>
<path fill="#2196f3" d="M16.914 10.249h-0.298v0.297h0.298v-0.297z"></path>
<path fill="#2196f3" d="M14.385 4.895h-0.297v0.298h0.297v-0.298z"></path>
<path fill="#2196f3" d="M14.385 5.49h-0.297v0.298h0.297v-0.298z"></path>
<path fill="#2196f3" d="M14.683 5.192h-0.297v0.298h0.297v-0.298z"></path>
<path fill="#2196f3" d="M14.088 5.192h-0.298v0.298h0.298v-0.298z"></path>
<path fill="#212121" d="M19.642 7.136c-0.080-0.108-0.198-0.178-0.331-0.197s-0.267 0.016-0.374 0.098l-0.349 0.268-0.529 0.395-0.379-0.151c0.675-0.303 1.147-0.978 1.147-1.763 0-1.066-0.871-1.934-1.941-1.934s-1.941 0.867-1.941 1.934c0 0.386 0.116 0.746 0.312 1.048l-0.771-0.007c-0 0-0.001 0-0.001 0-0.002 0-0.004 0.001-0.007 0.001-0.015 0.001-0.029 0.004-0.043 0.009-0.004 0.001-0.007 0.002-0.011 0.004-0.002 0.001-0.004 0.001-0.005 0.002l-0.902 0.445c-0 0-0 0-0 0l-0.528 0.254c-0.006 0.003-0.012 0.006-0.018 0.010-0.21 0.14-0.282 0.415-0.167 0.64 0.061 0.12 0.166 0.208 0.294 0.248 0.050 0.015 0.1 0.023 0.15 0.023 0.081 0 0.161-0.020 0.234-0.059l0.387-0.206 0.631-0.326 0.378-0.002-1.518 1.51c-0 0-0 0-0 0l-0.373 0.372c-0.088 0.088-0.137 0.204-0.137 0.328s0.049 0.241 0.137 0.329c0.091 0.090 0.21 0.135 0.329 0.135s0.238-0.045 0.329-0.135l0.367-0.365 0.485-0.362 0.251 0.25-0.491 0.489c-0 0-0 0-0.001 0l-0.373 0.372c-0.088 0.088-0.137 0.204-0.137 0.328s0.049 0.241 0.137 0.329c0.091 0.090 0.21 0.135 0.329 0.135s0.239-0.045 0.329-0.135l0.971-0.967c0-0 0-0 0-0l0.281-0.279-0.001-0.001c0.002-0.002 0.004-0.002 0.006-0.004l1.441-1.578 0.968 0.138c0.007 0.001 0.014 0.002 0.021 0.002 0.018 0 0.035-0.004 0.052-0.011 0.005-0.002 0.009-0.004 0.014-0.007s0.011-0.004 0.016-0.008l0.896-0.595c0.003-0.002 0.005-0.006 0.008-0.008s0.008-0.004 0.011-0.007l0.355-0.332c0.184-0.173 0.21-0.456 0.059-0.659zM13.343 8.143c-0.048 0.026-0.103 0.031-0.156 0.014s-0.094-0.052-0.119-0.1c-0.045-0.087-0.019-0.194 0.060-0.252l0.366-0.176 0.088 0.258 0.037 0.108-0.277 0.147zM14.318 7.633l-0.432 0.223-0.071-0.208-0.051-0.15 0.565-0.279-0.011 0.414zM18.529 5.787c0 0.256-0.061 0.498-0.167 0.714l-1.166-0.53c-0.012-0.16-0.095-0.3-0.22-0.387l0.408-1.355c0.663 0.211 1.145 0.83 1.145 1.558zM15.242 5.787c0-0.902 0.737-1.636 1.644-1.636 0.070 0 0.139 0.006 0.208 0.015l-0.399 1.326c-0.005-0-0.010-0.002-0.016-0.002-0.288 0-0.522 0.234-0.522 0.521s0.234 0.521 0.522 0.521c0.194 0 0.361-0.107 0.451-0.263l1.077 0.489c-0.3 0.403-0.779 0.667-1.321 0.667-0.906 0-1.644-0.734-1.644-1.636zM16.903 6.010c0 0.123-0.101 0.223-0.225 0.223s-0.225-0.1-0.225-0.223 0.101-0.223 0.225-0.223c0.124 0 0.225 0.1 0.225 0.223zM13.436 10.2c-0.066 0.065-0.173 0.065-0.238 0-0.032-0.032-0.049-0.073-0.049-0.118s0.017-0.086 0.049-0.117l0.268-0.267 0.237 0.236-0.267 0.266zM14.333 11.241c-0.066 0.065-0.173 0.065-0.238 0-0.032-0.032-0.049-0.073-0.049-0.118s0.017-0.086 0.049-0.117l0.268-0.267 0.238 0.236-0.268 0.266zM15.304 10.274c-0 0-0 0-0 0l-0.492 0.491-0.238-0.236 0.492-0.489c0 0 0 0 0-0s0-0 0.001-0c0.011-0.011 0.018-0.025 0.025-0.038 0.002-0.004 0.006-0.007 0.007-0.011 0.005-0.011 0.005-0.024 0.007-0.036 0.001-0.007 0.004-0.013 0.004-0.020 0-0.010-0.004-0.020-0.006-0.029s-0.002-0.018-0.005-0.027c-0.006-0.014-0.015-0.026-0.025-0.038-0.003-0.003-0.004-0.007-0.007-0.011 0 0 0 0-0 0s-0-0-0-0.001l-0.448-0.446c-0.005-0.005-0.011-0.007-0.016-0.011-0.008-0.006-0.015-0.012-0.024-0.016s-0.017-0.007-0.026-0.009c-0.009-0.003-0.019-0.005-0.029-0.005s-0.017 0-0.027 0.001c-0.010 0.001-0.019 0.003-0.029 0.006s-0.018 0.008-0.026 0.012c-0.006 0.003-0.012 0.004-0.017 0.008l-0.495 0.369-0.251-0.25 0.669-0.665 1.216 1.196-0.259 0.256zM17.205 8.317c-0.004-0.001-0.008 0.001-0.013 0.001-0.011-0.001-0.021 0-0.032 0.002-0.008 0.002-0.016 0.003-0.024 0.006-0.010 0.003-0.018 0.008-0.027 0.013s-0.016 0.010-0.023 0.017c-0.004 0.003-0.008 0.005-0.011 0.008l-1.31 1.435-1.207-1.187 0.79-0.786c0.058-0.058 0.059-0.152 0.001-0.21-0.029-0.029-0.068-0.044-0.106-0.044v-0l-0.619 0.004 0.008-0.448 0.866 0.007c0.353 0.361 0.845 0.586 1.389 0.586 0.122 0 0.241-0.013 0.357-0.034 0.011 0.009 0.022 0.018 0.036 0.024l0.672 0.268 0.042 0.212 0.050 0.247-0.837-0.119zM18.332 8.367l-0.087-0.434 0.403-0.301 0.264 0.35-0.58 0.385zM19.379 7.577l-0.234 0.219-0.26-0.345 0.232-0.178c0.043-0.033 0.098-0.047 0.151-0.040s0.101 0.036 0.134 0.079c0.060 0.081 0.050 0.195-0.024 0.264z"></path>
<path fill="#212121" d="M16.542 8.359l-0.598-0.595c-0.058-0.058-0.152-0.058-0.21 0l-0.598 0.595c-0.028 0.028-0.044 0.066-0.044 0.105s0.016 0.078 0.044 0.105l0.598 0.595c0.029 0.029 0.067 0.043 0.105 0.043s0.076-0.014 0.105-0.043l0.598-0.595c0.028-0.028 0.044-0.066 0.044-0.105s-0.016-0.078-0.044-0.105zM15.84 8.849l-0.387-0.385 0.387-0.385 0.387 0.385-0.387 0.385z"></path>
<path fill="#212121" d="M17.536 4.601l-0.072 0.289c0.020 0.005 0.485 0.126 0.485 0.599h0.298c0-0.563-0.465-0.827-0.71-0.888z"></path>
<path fill="#212121" d="M18.246 5.787h-0.298v0.298h0.298v-0.298z"></path>
</svg>
